<svg width="20" height="22" viewBox="0 0 20 22" fill="none" xmlns="http://www.w3.org/2000/svg">
<path fill-rule="evenodd" clip-rule="evenodd" d="M5.98035 2.53579L5.76523 3.81675C4.83201 3.86712 3.89884 3.93943 2.96572 4.03367L0.926815 4.23356C0.514578 4.27397 0.213157 4.64092 0.253572 5.05316C0.293987 5.4654 0.660935 5.76682 1.07317 5.7264L3.11317 5.52641L3.11537 5.52618C5.07045 5.3287 7.02529 5.22998 8.97999 5.22998C12.2946 5.22998 15.6199 5.39869 18.926 5.72632C19.3382 5.76717 19.7055 5.46614 19.7463 5.05394C19.7872 4.64175 19.4862 4.27448 19.074 4.23364C17.4673 4.07442 15.8559 3.95217 14.243 3.868C14.242 3.8603 14.2408 3.85258 14.2395 3.84486L14.0199 2.54711L14.0105 2.48891C13.9447 2.08006 13.8462 1.46776 13.439 0.998446C12.9677 0.455399 12.2451 0.25 11.31 0.25H8.68999C7.76609 0.25 7.04279 0.440117 6.56873 0.977691C6.16203 1.43887 6.06101 2.04899 5.99216 2.46487L5.98035 2.53579ZM7.45958 2.78456L7.29681 3.75377C7.85786 3.73791 8.41892 3.72998 8.97999 3.72998C10.2227 3.72998 11.4667 3.75334 12.7105 3.79954L12.5398 2.79069C12.4561 2.27767 12.4032 2.09352 12.306 1.98155C12.2523 1.9196 12.0649 1.75 11.31 1.75H8.68999C7.9239 1.75 7.7422 1.91488 7.69376 1.96981C7.60164 2.07427 7.54966 2.24976 7.45958 2.78456Z" fill="#9CA3AF"/>
<path d="M3.8985 8.0917C3.87182 7.67835 3.5151 7.36489 3.10175 7.39157C2.68839 7.41825 2.37493 7.77497 2.40162 8.18833L3.05162 18.2583L3.05189 18.2624L3.05322 18.2814C3.07957 18.6577 3.10854 19.0714 3.18607 19.4564C3.26646 19.8555 3.40816 20.2768 3.69526 20.6506C4.29643 21.4333 5.31949 21.75 6.79006 21.75H13.2101C14.6806 21.75 15.7037 21.4333 16.3049 20.6506C16.592 20.2768 16.7337 19.8555 16.814 19.4564C16.8916 19.0714 16.9205 18.6577 16.9469 18.2814L16.9482 18.2624L16.9485 18.2583L17.5985 8.18833C17.6252 7.77497 17.3117 7.41825 16.8984 7.39157C16.485 7.36489 16.1283 7.67835 16.1016 8.0917L15.4519 18.1576L15.4517 18.1598C15.4235 18.5625 15.3996 18.8818 15.3436 19.1602C15.289 19.4314 15.2132 19.6095 15.1153 19.7369C14.9464 19.9567 14.5295 20.25 13.2101 20.25H6.79006C5.47062 20.25 5.05369 19.9567 4.88486 19.7369C4.78696 19.6095 4.71115 19.4314 4.65655 19.1602C4.60048 18.8818 4.57659 18.5624 4.54837 18.1596L3.8985 8.0917Z" fill="#9CA3AF"/>
<path d="M7.58007 15.5C7.58007 15.0858 7.91586 14.75 8.33007 14.75H11.6601C12.0743 14.75 12.4101 15.0858 12.4101 15.5C12.4101 15.9142 12.0743 16.25 11.6601 16.25H8.33007C7.91586 16.25 7.58007 15.9142 7.58007 15.5Z" fill="#9CA3AF"/>
<path d="M7.49999 10.75C7.08578 10.75 6.74999 11.0858 6.74999 11.5C6.74999 11.9142 7.08578 12.25 7.49999 12.25H12.5C12.9142 12.25 13.25 11.9142 13.25 11.5C13.25 11.0858 12.9142 10.75 12.5 10.75H7.49999Z" fill="#9CA3AF"/>
</svg>
