<svg width="22" height="10" viewBox="0 0 22 10" fill="none" xmlns="http://www.w3.org/2000/svg">
<path d="M6.19702 1.53033C6.48991 1.23744 6.48991 0.762563 6.19702 0.46967C5.90412 0.176777 5.42925 0.176777 5.13636 0.46967L1.13646 4.46957C1.06455 4.54148 1.0102 4.62445 0.973596 4.71291C0.936926 4.80134 0.916687 4.89831 0.916687 5C0.916687 5.10169 0.936926 5.19866 0.973596 5.28709C1.0102 5.37555 1.06445 5.45842 1.13636 5.53033L5.13636 9.53033C5.42925 9.82322 5.90412 9.82322 6.19702 9.53033C6.48991 9.23744 6.48991 8.76256 6.19702 8.46967L3.47735 5.75H9.66669C10.0809 5.75 10.4167 5.41421 10.4167 5C10.4167 4.58579 10.0809 4.25 9.66669 4.25H3.47735L6.19702 1.53033Z" fill="white"/>
<path d="M16.8637 0.46967C16.5708 0.176777 16.0959 0.176777 15.803 0.46967C15.5101 0.762563 15.5101 1.23744 15.803 1.53033L18.5227 4.25H12.3334C11.9191 4.25 11.5834 4.58579 11.5834 5C11.5834 5.41421 11.9191 5.75 12.3334 5.75H18.5227L15.803 8.46967C15.5101 8.76256 15.5101 9.23744 15.803 9.53033C16.0959 9.82322 16.5708 9.82322 16.8637 9.53033L20.863 5.531L20.8686 5.52541C20.938 5.45465 20.9907 5.37354 21.0264 5.28709C21.0631 5.19866 21.0834 5.10169 21.0834 5C21.0834 4.89831 21.0631 4.80134 21.0264 4.71291C20.9907 4.62646 20.938 4.54535 20.8686 4.47459L20.863 4.469L16.8637 0.46967Z" fill="white"/>
</svg>
