<svg width="30" height="30" viewBox="0 0 30 30" fill="none" xmlns="http://www.w3.org/2000/svg">
<path d="M28.0832 10.875C28.7755 10.875 29.2536 10.1864 28.9076 9.58673C27.5245 7.19014 24.9359 5.58 21.975 5.58H17.79C16.92 5.58 16.86 5.505 16.395 4.89L14.295 2.1C13.32 0.795 12.555 0 10.11 0H6.63C2.97 0 0 2.97 0 6.63V9.875C0 10.4273 0.447716 10.875 1 10.875H28.0832Z" fill="#9CA3AF"/>
<path d="M29.9734 14.1212C29.9715 13.5703 29.5243 13.1246 28.9734 13.1246L0.999987 13.125C0.447707 13.125 0 13.5727 0 14.125V21.975C0 26.4 3.6 30 8.025 30H21.975C26.4 30 30 26.4 30 21.975L29.9734 14.1212Z" fill="#9CA3AF"/>
</svg>
