<svg width="30" height="30" viewBox="0 0 30 30" fill="none" xmlns="http://www.w3.org/2000/svg">
<path d="M23.34 0H6.615C2.97 0 0 2.97 0 6.615V16.365V16.665C0 20.325 2.97 23.28 6.615 23.28H12.375C13.2 23.28 13.875 23.955 13.875 24.78V26.235C13.875 27.06 13.2 27.735 12.375 27.735H8.745C8.13 27.735 7.62 28.245 7.62 28.86C7.62 29.475 8.115 30 8.745 30H21.27C21.885 30 22.395 29.49 22.395 28.875C22.395 28.26 21.885 27.75 21.27 27.75H17.64C16.815 27.75 16.14 27.075 16.14 26.25V24.795C16.14 23.97 16.815 23.295 17.64 23.295H23.355C27.015 23.295 29.97 20.325 29.97 16.68V16.38V6.63C29.955 2.97 26.985 0 23.34 0Z" fill="#9CA3AF"/>
</svg>
