<svg width="22" height="22" viewBox="0 0 22 22" fill="none" xmlns="http://www.w3.org/2000/svg">
<path d="M11.5254 4.97481C11.4547 4.90532 11.3735 4.85269 11.2871 4.81692C11.1987 4.78025 11.1017 4.76001 11 4.76001C10.8983 4.76001 10.8013 4.78025 10.7129 4.81692C10.6251 4.85325 10.5428 4.90697 10.4713 4.97809L11.2871 4.81692L10.4693 4.98L7.46967 7.97968C7.17678 8.27257 7.17678 8.74745 7.46967 9.04034C7.76256 9.33323 8.23744 9.33323 8.53033 9.04034L10.25 7.32067V13.51C10.25 13.9242 10.5858 14.26 11 14.26C11.4142 14.26 11.75 13.9242 11.75 13.51V7.32067L13.4697 9.04034C13.7626 9.33323 14.2374 9.33323 14.5303 9.04034C14.8232 8.74745 14.8232 8.27257 14.5303 7.97968L11.531 4.98035L11.5254 4.97481Z" fill="#9CA3AF"/>
<path d="M5.23772 14.7987C4.84486 14.6674 4.41996 14.8794 4.28867 15.2723C4.15738 15.6651 4.36942 16.0901 4.76228 16.2213C8.80657 17.5729 13.1934 17.5729 17.2377 16.2213C17.6306 16.0901 17.8426 15.6651 17.7113 15.2723C17.58 14.8794 17.1551 14.6674 16.7623 14.7987C13.0266 16.0471 8.97343 16.0471 5.23772 14.7987Z" fill="#9CA3AF"/>
<path fill-rule="evenodd" clip-rule="evenodd" d="M8 0.25C5.42603 0.25 3.42914 0.760201 2.09467 2.09467C0.760201 3.42914 0.25 5.42603 0.25 8V14C0.25 16.574 0.760201 18.5709 2.09467 19.9053C3.42914 21.2398 5.42603 21.75 8 21.75H14C16.574 21.75 18.5709 21.2398 19.9053 19.9053C21.2398 18.5709 21.75 16.574 21.75 14V8C21.75 5.42603 21.2398 3.42914 19.9053 2.09467C18.5709 0.760201 16.574 0.25 14 0.25H8ZM1.75 8C1.75 5.57397 2.2398 4.07086 3.15533 3.15533C4.07086 2.2398 5.57397 1.75 8 1.75H14C16.426 1.75 17.9291 2.2398 18.8447 3.15533C19.7602 4.07086 20.25 5.57397 20.25 8V14C20.25 16.426 19.7602 17.9291 18.8447 18.8447C17.9291 19.7602 16.426 20.25 14 20.25H8C5.57397 20.25 4.07086 19.7602 3.15533 18.8447C2.2398 17.9291 1.75 16.426 1.75 14V8Z" fill="#9CA3AF"/>
</svg>
