<svg width="22" height="22" viewBox="0 0 22 22" fill="none" xmlns="http://www.w3.org/2000/svg">
<path d="M8.53033 12.9597C8.23744 12.6668 7.76256 12.6668 7.46967 12.9597L11 17.24C10.8064 17.24 10.6206 17.1652 10.4811 17.0315C10.6158 17.1606 10.7986 17.24 11 17.24C11.1989 17.24 11.3897 17.161 11.5303 17.0203L14.5303 14.0203C14.8232 13.7274 14.8232 13.2526 14.5303 12.9597C14.2374 12.6668 13.7626 12.6668 13.4697 12.9597L11.75 14.6793L11.75 8.48999C11.75 8.07578 11.4142 7.73999 11 7.73999C10.5858 7.73999 10.25 8.07578 10.25 8.48999L10.25 14.6793L8.53033 12.9597Z" fill="#9CA3AF"/>
<path d="M17.2377 5.77869C13.1934 4.42712 8.80657 4.42712 4.76228 5.77868C4.36942 5.90997 4.15738 6.33488 4.28867 6.72773C4.41996 7.12059 4.84486 7.33263 5.23772 7.20134C8.97343 5.9529 13.0266 5.95291 16.7623 7.20135C17.1551 7.33263 17.58 7.12059 17.7113 6.72773C17.8426 6.33488 17.6306 5.90997 17.2377 5.77869Z" fill="#9CA3AF"/>
<path fill-rule="evenodd" clip-rule="evenodd" d="M8 0.25C5.42603 0.25 3.42914 0.760201 2.09467 2.09467C0.760202 3.42914 0.25 5.42603 0.25 8V14C0.25 16.574 0.760201 18.5709 2.09467 19.9053C3.42914 21.2398 5.42603 21.75 8 21.75H14C16.574 21.75 18.5709 21.2398 19.9053 19.9053C21.2398 18.5709 21.75 16.574 21.75 14V8C21.75 5.42603 21.2398 3.42914 19.9053 2.09467C18.5709 0.760202 16.574 0.25 14 0.25H8ZM1.75 8C1.75 5.57397 2.2398 4.07086 3.15533 3.15533C4.07086 2.2398 5.57397 1.75 8 1.75L14 1.75C16.426 1.75 17.9291 2.2398 18.8447 3.15533C19.7602 4.07086 20.25 5.57397 20.25 8V14C20.25 16.426 19.7602 17.9291 18.8447 18.8447C17.9291 19.7602 16.426 20.25 14 20.25H8C5.57397 20.25 4.07086 19.7602 3.15533 18.8447C2.2398 17.9291 1.75 16.426 1.75 14L1.75 8Z" fill="#9CA3AF"/>
</svg>
