<svg width="28" height="30" viewBox="0 0 28 30" fill="none" xmlns="http://www.w3.org/2000/svg">
<path d="M27.335 4.77V21.72C27.335 24.69 24.92 27.105 21.95 27.105C18.995 27.105 16.565 24.69 16.565 21.72C16.565 18.765 18.995 16.35 21.95 16.35C23.21 16.35 24.335 16.785 25.25 17.505V8.58L11.435 12.51V24.615C11.435 27.585 9.00498 30 6.04998 30C3.07998 30 0.664978 27.585 0.664978 24.615C0.664978 21.66 3.07998 19.245 6.04998 19.245C7.29498 19.245 8.41998 19.68 9.33498 20.385V7.125C9.33498 4.92 10.67 3.21 12.785 2.64L21.455 0.269997C23.21 -0.210003 24.695 -0.0450027 25.745 0.764997C26.81 1.56 27.335 2.91 27.335 4.77Z" fill="#9CA3AF"/>
</svg>
