<svg width="18" height="16" viewBox="0 0 18 16" fill="none" xmlns="http://www.w3.org/2000/svg">
<path d="M15.1003 1.15964C14.8074 0.866749 14.3325 0.866749 14.0396 1.15964C13.7467 1.45254 13.7467 1.92741 14.0396 2.2203L15.3793 3.56001H5.86993C2.69572 3.56001 0.119934 6.13579 0.119934 9.31001C0.119934 12.4842 2.69572 15.06 5.86993 15.06H13.8699C14.2841 15.06 14.6199 14.7242 14.6199 14.31C14.6199 13.8958 14.2841 13.56 13.8699 13.56H5.86993C3.52415 13.56 1.61993 11.6558 1.61993 9.31001C1.61993 6.96422 3.52415 5.06001 5.86993 5.06001H15.2593L14.0396 6.27964C13.7467 6.57254 13.7467 7.04741 14.0396 7.3403C14.3325 7.6332 14.8074 7.6332 15.1003 7.3403L17.6603 4.7803C17.9532 4.48741 17.9532 4.01254 17.6603 3.71964L15.1003 1.15964Z" fill="#9CA3AF"/>
</svg>
