<svg width="30" height="30" viewBox="0 0 30 30" fill="none" xmlns="http://www.w3.org/2000/svg">
<path d="M28.425 3.195C27.99 2.565 27.435 2.01 26.805 1.575C25.38 0.54 23.52 0 21.285 0H8.715C8.415 0 8.115 0.015 7.83 0.045C2.91 0.36 0 3.555 0 8.715V21.285C0 23.52 0.54 25.38 1.575 26.805C2.01 27.435 2.565 27.99 3.195 28.425C4.425 29.325 5.985 29.85 7.83 29.97C8.115 29.985 8.415 30 8.715 30H21.285C26.745 30 30 26.745 30 21.285V8.715C30 6.48 29.46 4.62 28.425 3.195ZM25.125 10.35C25.125 10.965 24.615 11.475 24 11.475C23.385 11.475 22.875 10.965 22.875 10.35V8.58C22.875 8.1 22.485 7.71 22.005 7.71H16.125V22.29H18.795C19.41 22.29 19.92 22.8 19.92 23.415C19.92 24.03 19.41 24.54 18.795 24.54H11.205C10.59 24.54 10.08 24.03 10.08 23.415C10.08 22.8 10.59 22.29 11.205 22.29H13.875V7.71H7.995C7.515 7.71 7.125 8.1 7.125 8.58V10.35C7.125 10.965 6.615 11.475 6 11.475C5.385 11.475 4.875 10.965 4.875 10.35V8.58C4.875 6.855 6.27 5.46 7.995 5.46H21.99C23.715 5.46 25.11 6.855 25.11 8.58V10.35H25.125Z" fill="#9CA3AF"/>
</svg>
