<svg width="30" height="24" viewBox="0 0 30 24" fill="none" xmlns="http://www.w3.org/2000/svg">
<path d="M0 7.43718V16.5641C0 18.4333 2.06565 19.6064 3.71429 18.6718L7.7389 16.3924L11.7635 14.1035C13.4122 13.1689 13.4122 10.8324 11.7635 9.89773L7.7389 7.60885L3.71429 5.32951C2.06565 4.39489 0 5.5584 0 7.43718Z" fill="#9CA3AF"/>
<path d="M30 7.43718V16.5641C30 18.4333 27.9344 19.6064 26.2857 18.6718L22.2611 16.3924L18.2365 14.1035C16.5878 13.1689 16.5878 10.8324 18.2365 9.89773L22.2611 7.60885L26.2857 5.32951C27.9344 4.39489 30 5.5584 30 7.43718Z" fill="#9CA3AF"/>
<path d="M14 1C14 0.447716 14.4477 0 15 0C15.5523 0 16 0.447715 16 1V23C16 23.5523 15.5523 24 15 24C14.4477 24 14 23.5523 14 23V1Z" fill="#9CA3AF"/>
</svg>
