<svg width="18" height="16" viewBox="0 0 18 16" fill="none" xmlns="http://www.w3.org/2000/svg">
<path d="M3.96026 2.2203C4.25316 1.92741 4.25316 1.45254 3.96026 1.15964C3.66737 0.866749 3.1925 0.866749 2.8996 1.15964L0.339604 3.71964C0.0467108 4.01253 0.0467108 4.48741 0.339604 4.7803L2.8996 7.3403C3.1925 7.6332 3.66737 7.6332 3.96026 7.3403C4.25316 7.04741 4.25316 6.57254 3.96026 6.27964L2.74063 5.06001H12.13C14.4758 5.06001 16.38 6.96422 16.38 9.31001C16.38 11.6558 14.4758 13.56 12.13 13.56H4.13003C3.71581 13.56 3.38003 13.8958 3.38003 14.31C3.38003 14.7242 3.71581 15.06 4.13003 15.06H12.13C15.3042 15.06 17.88 12.4842 17.88 9.31001C17.88 6.13579 15.3042 3.56001 12.13 3.56001H2.62056L3.96026 2.2203Z" fill="#9CA3AF"/>
</svg>
