<svg width="14" height="14" viewBox="0 0 14 14" fill="none" xmlns="http://www.w3.org/2000/svg">
<path d="M7.74994 1C7.74994 0.585786 7.41415 0.25 6.99994 0.25C6.58573 0.25 6.24994 0.585786 6.24994 1V6.25H0.999939C0.585725 6.25 0.249939 6.58579 0.249939 7C0.249939 7.41421 0.585725 7.75 0.999939 7.75H6.24994V13C6.24994 13.4142 6.58573 13.75 6.99994 13.75C7.41415 13.75 7.74994 13.4142 7.74994 13V7.75H12.9999C13.4142 7.75 13.7499 7.41421 13.7499 7C13.7499 6.58579 13.4142 6.25 12.9999 6.25H7.74994V1Z" fill="white"/>
</svg>
